<?xml version="1.0" encoding="utf-8"?>
<!-- Generator: Adobe Illustrator 19.0.0, SVG Export Plug-In . SVG Version: 6.00 Build 0)  -->
<svg version="1.1" id="Layer_1" xmlns="http://www.w3.org/2000/svg" xmlns:xlink="http://www.w3.org/1999/xlink" x="0px" y="0px"
	 viewBox="0 0 22 22" style="enable-background:new 0 0 22 22;" xml:space="preserve">
<style type="text/css">
	.st0{fill:#FFFFFF;}
	.st1{fill:#00457C;}
	.st2{fill:#E51B24;}
</style>
<g id="XMLID_1_">
	<g id="XMLID_3_">
		<path id="XMLID_35_" class="st0" d="M11,21.5C5.2,21.5,0.5,16.8,0.5,11S5.2,0.5,11,0.5S21.5,5.2,21.5,11S16.8,21.5,11,21.5z"/>
		<path id="XMLID_32_" class="st1" d="M11,1c5.5,0,10,4.5,10,10c0,5.5-4.5,10-10,10C5.5,21,1,16.5,1,11C1,5.5,5.5,1,11,1 M11,0
			C4.9,0,0,4.9,0,11s4.9,11,11,11s11-4.9,11-11S17.1,0,11,0L11,0z"/>
	</g>
	<g id="XMLID_4_">
		<circle id="XMLID_31_" class="st2" cx="11" cy="11" r="6"/>
	</g>
</g>
</svg>
